# xmcd CD database file
#
# Track frame offsets:
#	150
#	12808
#	29641
#	40418
#	54686
#	70169
#	82924
#	99447
#	115179
#	125114
#
# Disc length: 1969 seconds
#
# Revision: 1
# Processed by: cddbd v1.5.2PL0 Copyright (c) Steve Scherf et al.
# Submitted via: CDex 1.70beta2
#
DISCID=8307af0a
DTITLE=Markus Schlesinger - Use Your Wings
DYEAR=2016
DGENRE=Jazz
TTITLE0=Be The Change
TTITLE1=Summertime
TTITLE2=Use Your Wings
TTITLE3=Spark Of Hope
TTITLE4=Mr Lovely
TTITLE5=Let My People Go
TTITLE6=My Lullaby
TTITLE7=Love and Dignity
TTITLE8=To Don
TTITLE9=Lovers Waltz
EXTD=YEAR: 2016
EXTT0=
EXTT1=
EXTT2=
EXTT3=
EXTT4=
EXTT5=
EXTT6=
EXTT7=
EXTT8=
EXTT9=
PLAYORDER=
